<svg id="close" width="11" height="10" viewBox="0 0 11 10" fill="none" xmlns="http://www.w3.org/2000/svg">
<mask id="path-1-inside-1" fill="white">
<path d="M6.1077 5.00001L10.8741 0.666859C11.042 0.514301 11.042 0.266957 10.8741 0.114419C10.7063 -0.03812 10.4343 -0.0381396 10.2665 0.114419L5.49999 4.44757L0.733545 0.114419C0.565731 -0.0381396 0.293653 -0.0381396 0.125861 0.114419C-0.0419321 0.266977 -0.0419535 0.51432 0.125861 0.666859L4.89231 5L0.125861 9.33315C-0.0419535 9.48571 -0.0419535 9.73305 0.125861 9.88559C0.209757 9.96186 0.319735 9.99999 0.429713 9.99999C0.539692 9.99999 0.649649 9.96186 0.733566 9.88559L5.49999 5.55245L10.2664 9.88559C10.3503 9.96186 10.4603 9.99999 10.5703 9.99999C10.6803 9.99999 10.7902 9.96186 10.8741 9.88559C11.042 9.73303 11.042 9.48569 10.8741 9.33315L6.1077 5.00001Z"/>
</mask>
<path d="M6.1077 5.00001L10.8741 0.666859C11.042 0.514301 11.042 0.266957 10.8741 0.114419C10.7063 -0.03812 10.4343 -0.0381396 10.2665 0.114419L5.49999 4.44757L0.733545 0.114419C0.565731 -0.0381396 0.293653 -0.0381396 0.125861 0.114419C-0.0419321 0.266977 -0.0419535 0.51432 0.125861 0.666859L4.89231 5L0.125861 9.33315C-0.0419535 9.48571 -0.0419535 9.73305 0.125861 9.88559C0.209757 9.96186 0.319735 9.99999 0.429713 9.99999C0.539692 9.99999 0.649649 9.96186 0.733566 9.88559L5.49999 5.55245L10.2664 9.88559C10.3503 9.96186 10.4603 9.99999 10.5703 9.99999C10.6803 9.99999 10.7902 9.96186 10.8741 9.88559C11.042 9.73303 11.042 9.48569 10.8741 9.33315L6.1077 5.00001Z" fill="#C835ED"/>
<path d="M6.1077 5.00001L3.417 2.04026L0.161281 5.00002L3.41701 7.95978L6.1077 5.00001ZM10.8741 0.666859L8.18346 -2.2929L8.18345 -2.2929L10.8741 0.666859ZM10.2665 0.114419L12.9572 3.07418L12.9573 3.07401L10.2665 0.114419ZM5.49999 4.44757L2.8093 7.40733L5.49999 9.85342L8.19069 7.40733L5.49999 4.44757ZM0.733545 0.114419L3.42424 -2.84534L3.42424 -2.84534L0.733545 0.114419ZM0.125861 0.666859L2.81655 -2.2929L2.81636 -2.29307L0.125861 0.666859ZM4.89231 5L7.58301 7.95975L10.8387 4.99999L7.583 2.04024L4.89231 5ZM0.125861 9.33315L2.81655 12.2929L2.81656 12.2929L0.125861 9.33315ZM0.125861 9.88559L2.81655 6.92583L2.81636 6.92566L0.125861 9.88559ZM0.733566 9.88559L3.42388 12.8457L3.42426 12.8453L0.733566 9.88559ZM5.49999 5.55245L8.19069 2.59269L5.49999 0.146605L2.8093 2.5927L5.49999 5.55245ZM10.2664 9.88559L7.57575 12.8454L7.57575 12.8454L10.2664 9.88559ZM10.8741 9.88559L13.5645 12.8457L13.5648 12.8454L10.8741 9.88559ZM10.8741 9.33315L8.18346 12.2929L8.18365 12.2931L10.8741 9.33315ZM8.7984 7.95977L13.5648 3.62661L8.18345 -2.2929L3.417 2.04026L8.7984 7.95977ZM13.5648 3.62662C15.4783 1.88712 15.4786 -1.10581 13.5647 -2.84551L8.18365 3.07435C6.60535 1.63972 6.60564 -0.85852 8.18346 -2.2929L13.5648 3.62662ZM13.5647 -2.84551C11.8715 -4.38452 9.26943 -4.38523 7.57559 -2.84517L12.9573 3.07401C11.5991 4.30895 9.54115 4.30828 8.18365 3.07435L13.5647 -2.84551ZM7.57577 -2.84534L2.8093 1.48781L8.19069 7.40733L12.9572 3.07418L7.57577 -2.84534ZM8.19069 1.48782L3.42424 -2.84534L-1.95715 3.07417L2.8093 7.40733L8.19069 1.48782ZM3.42424 -2.84534C1.73083 -4.3848 -0.871388 -4.38503 -2.56502 -2.84517L2.81674 3.07401C1.45869 4.30875 -0.599373 4.30852 -1.95715 3.07418L3.42424 -2.84534ZM-2.56502 -2.84517C-4.47792 -1.10594 -4.47883 1.88684 -2.56464 3.62679L2.81636 -2.29307C4.39493 -0.858199 4.39406 1.6399 2.81674 3.07401L-2.56502 -2.84517ZM-2.56483 3.62662L2.20162 7.95976L7.583 2.04024L2.81655 -2.2929L-2.56483 3.62662ZM2.20161 2.04024L-2.56484 6.3734L2.81656 12.2929L7.58301 7.95975L2.20161 2.04024ZM-2.56483 6.37339C-4.47828 8.11289 -4.47856 11.1058 -2.56464 12.8455L2.81636 6.92566C4.39466 8.36029 4.39437 10.8585 2.81655 12.2929L-2.56483 6.37339ZM-2.56483 12.8454C-1.67916 13.6505 -0.58314 14 0.429713 14V5.99999C1.22261 5.99999 2.09868 6.27322 2.81655 6.92583L-2.56483 12.8454ZM0.429713 14C1.44287 14 2.53856 13.6503 3.42388 12.8457L-1.95675 6.92549C-1.23926 6.27339 -0.363488 5.99999 0.429713 5.99999V14ZM3.42426 12.8453L8.19069 8.51221L2.8093 2.5927L-1.95713 6.92584L3.42426 12.8453ZM2.8093 8.51221L7.57575 12.8454L12.9571 6.92583L8.19069 2.59269L2.8093 8.51221ZM7.57575 12.8454C8.46142 13.6505 9.55744 14 10.5703 14V5.99999C11.3632 5.99999 12.2393 6.27322 12.9571 6.92583L7.57575 12.8454ZM10.5703 14C11.5835 14 12.6791 13.6503 13.5645 12.8457L8.18384 6.92549C8.90132 6.27339 9.7771 5.99999 10.5703 5.99999V14ZM13.5648 12.8454C15.4783 11.1059 15.4786 8.11293 13.5647 6.37322L8.18365 12.2931C6.60535 10.8585 6.60564 8.36021 8.18346 6.92583L13.5648 12.8454ZM13.5648 6.37339L8.79839 2.04025L3.41701 7.95978L8.18346 12.2929L13.5648 6.37339Z" fill="#C835ED" mask="url(#path-1-inside-1)"/>
</svg>
