<svg width="30" height="30" viewBox="0 0 30 30" fill="none" xmlns="http://www.w3.org/2000/svg">
<rect width="30" height="30" rx="10" fill="url(#paint0_linear)"/>
<path d="M21.9817 17.2982L21.6424 14.8742C21.6222 14.7291 21.515 14.633 21.4035 14.6593C21.2918 14.6857 21.2177 14.8246 21.238 14.9695L21.5773 17.3941C21.6103 17.6276 21.5713 17.864 21.4673 18.0596C21.3634 18.2552 21.207 18.3865 21.0264 18.4295L19.7032 18.7512C19.5916 18.7783 19.5181 18.9177 19.539 19.0626C19.5575 19.1908 19.6438 19.2803 19.7408 19.2803C19.7534 19.2803 21.1013 18.9543 21.1013 18.9543C21.3893 18.8856 21.6394 18.6755 21.8057 18.3626C21.972 18.0498 22.0345 17.6715 21.9817 17.2982V17.2982Z" fill="white"/>
<path d="M18.7338 18.9759L14.1787 20.0611C13.807 20.1496 13.4491 19.8292 13.3809 19.3468L12.6909 14.4642C12.6227 13.9816 12.8695 13.517 13.2411 13.4285L20.0895 11.7968C20.2693 11.754 20.4514 11.8046 20.6022 11.9396C20.7528 12.0746 20.854 12.2775 20.887 12.5111L21.0619 13.7486C21.0823 13.8936 21.1893 13.9894 21.3011 13.9629C21.4128 13.9363 21.4867 13.7972 21.4662 13.6523L21.2913 12.4148C21.2385 12.041 21.0766 11.7162 20.8356 11.5003C20.5945 11.2844 20.3032 11.2033 20.0153 11.2719L19.9959 11.2765L19.9647 11.0566C19.9169 10.7179 19.7703 10.4237 19.5519 10.2282C19.3337 10.0328 19.0697 9.9594 18.8089 10.0215L11.7571 11.7014C11.2187 11.8296 10.861 12.5028 10.9598 13.2019L11.6872 18.3487C11.775 18.9694 12.1936 19.4051 12.6634 19.4051C12.7227 19.4051 12.7828 19.3981 12.8431 19.3838L12.9641 19.3549L12.9766 19.443C13.0735 20.1284 13.5357 20.6095 14.0545 20.6095C14.1199 20.6095 14.1863 20.6018 14.2529 20.586L18.808 19.5008C18.9196 19.4742 18.9935 19.3351 18.973 19.1902C18.9525 19.0452 18.8453 18.9492 18.7338 18.9759V18.9759ZM12.7689 18.8589C12.4533 18.9341 12.1495 18.662 12.0916 18.2524L11.3642 13.1056C11.3063 12.6959 11.5159 12.3014 11.8313 12.2263L18.8831 10.5465C19.0359 10.51 19.1907 10.5531 19.3186 10.6676C19.4465 10.7821 19.5324 10.9545 19.5604 11.153L19.5915 11.3729L13.1669 12.9036C12.5723 13.0452 12.1774 13.7885 12.2865 14.5606L12.8899 18.83L12.7689 18.8589Z" fill="white"/>
<path d="M15.3177 15.929C15.3177 17.2292 16.1325 18.2871 17.134 18.2871C18.1355 18.2871 18.9503 17.2292 18.9503 15.929C18.9503 14.6288 18.1355 13.571 17.134 13.571C16.1325 13.571 15.3177 14.6288 15.3177 15.929ZM18.5392 15.929C18.5392 16.935 17.9088 17.7534 17.134 17.7534C16.3592 17.7534 15.7288 16.935 15.7288 15.929C15.7288 14.9231 16.3592 14.1047 17.134 14.1047C17.9088 14.1047 18.5392 14.9231 18.5392 15.929Z" fill="white"/>
<path d="M8.25441 17.6127L9.49391 17.2194C9.60419 17.1844 9.67172 17.0399 9.64478 16.8968C9.61784 16.7536 9.50658 16.6661 9.39632 16.7009L8.15679 17.0943C8.04651 17.1293 7.97898 17.2737 8.00592 17.4169C8.02886 17.5388 8.11291 17.6204 8.20543 17.6204C8.22158 17.6204 8.23802 17.6179 8.25441 17.6127V17.6127Z" fill="white"/>
<path d="M11.003 19.5736L9.76352 19.967C9.65324 20.002 9.58572 20.1464 9.61266 20.2896C9.6356 20.4115 9.71965 20.4931 9.81217 20.4931C9.82831 20.4931 9.84476 20.4906 9.86114 20.4854L11.1006 20.0921C11.2109 20.057 11.2785 19.9126 11.2515 19.7695C11.2246 19.6264 11.1133 19.5388 11.003 19.5736V19.5736Z" fill="white"/>
<path d="M10.413 17.9533L8.48493 18.597C8.37498 18.6337 8.30877 18.7791 8.33705 18.9218C8.36092 19.0423 8.4444 19.1223 8.53596 19.1223C8.5529 19.1223 8.57014 19.1196 8.58729 19.1138L10.5154 18.4702C10.6253 18.4334 10.6916 18.288 10.6633 18.1453C10.635 18.0025 10.5229 17.9165 10.413 17.9533V17.9533Z" fill="white"/>
<path d="M10.4365 16.941C10.4522 16.941 10.4681 16.9387 10.484 16.9338L10.7445 16.8538C10.8549 16.8198 10.9233 16.6761 10.8972 16.5327C10.8711 16.3893 10.7603 16.3005 10.6499 16.3344L10.3894 16.4144C10.2789 16.4483 10.2105 16.5921 10.2366 16.7355C10.259 16.8583 10.3434 16.941 10.4365 16.941V16.941Z" fill="white"/>
<path d="M8.76918 20.3303L8.30093 20.4733C8.19043 20.5071 8.12191 20.6508 8.14792 20.7942C8.1702 20.9171 8.25461 21 8.34782 21C8.36341 21 8.37923 20.9977 8.39507 20.9929L8.86332 20.8498C8.97382 20.816 9.04234 20.6724 9.01633 20.5289C8.99032 20.3854 8.87968 20.2966 8.76918 20.3303V20.3303Z" fill="white"/>
<defs>
<linearGradient id="paint0_linear" x1="15" y1="0" x2="15" y2="30" gradientUnits="userSpaceOnUse">
<stop stop-color="#84EDE7"/>
<stop offset="0.354167" stop-color="#EAB0F3"/>
<stop offset="0.755208" stop-color="#FFB8D1"/>
<stop offset="1" stop-color="#FADFDF"/>
</linearGradient>
</defs>
</svg>
